<svg width="174" height="183" viewBox="0 0 174 183" fill="none" xmlns="http://www.w3.org/2000/svg">
<path d="M50.142 14.533L14.3016 116.528C11.9064 123.345 17.308 130.373 24.5111 129.813L42.8159 128.391C46.7657 128.084 50.1619 125.474 51.4753 121.736L87.3158 19.7405C89.7109 12.9243 84.3094 5.89544 77.1063 6.45536L58.8015 7.87824C54.8516 8.18528 51.4555 10.7952 50.142 14.533Z" fill="url(#paint0_linear_13_1168)"/>
<path d="M92.0212 63.2784L56.1808 165.274C53.7856 172.09 59.1872 179.119 66.3902 178.559L84.695 177.136C88.6449 176.829 92.0411 174.219 93.3545 170.481L129.195 68.486C131.59 61.6697 126.189 54.6409 118.985 55.2008L100.681 56.6237C96.7308 56.9307 93.3346 59.5407 92.0212 63.2784Z" fill="url(#paint1_linear_13_1168)"/>
<path d="M34.4738 59.931L21.5306 95.494C21.0331 96.8608 22.1148 98.2847 23.565 98.172L147.942 88.5038C149.934 88.3489 151.643 87.0222 152.287 85.1302L161.668 57.5748C162.816 54.2038 160.172 50.7477 156.618 50.9734L36.2264 58.619C35.4335 58.6694 34.7455 59.1844 34.4738 59.931Z" fill="url(#paint2_linear_13_1168)"/>
<path d="M37.5968 70.2565L40.4799 70.0889L39.6695 75.465L45.4547 75.1287L46.2652 69.7527L49.1483 69.5851L47.1116 83.0069L44.2285 83.1744L45.0815 77.5485L39.2963 77.8847L38.4433 83.5107L35.5601 83.6783L37.5968 70.2565ZM54.2201 82.8792C53.1832 82.9395 52.2937 82.8072 51.5516 82.4824C50.8095 82.1576 50.2364 81.6833 49.8322 81.0597C49.428 80.4361 49.2016 79.7071 49.1531 78.8725C49.1289 78.4552 49.1534 78.0033 49.2266 77.5169L50.455 69.5091L53.3382 69.3416L52.1119 77.3873C52.0506 77.8603 52.0269 78.2169 52.0409 78.4572C52.0784 79.1021 52.3023 79.5712 52.7127 79.8646C53.1223 80.1453 53.7634 80.2603 54.6359 80.2096C55.5464 80.1567 56.3031 79.8589 56.9059 79.3164C57.5088 78.7738 57.8835 78.0161 58.0299 77.0433L59.2562 68.9976L62.1393 68.8301L60.9109 76.8378C60.6276 78.7321 59.9635 80.1854 58.9185 81.1978C57.8854 82.1967 56.3193 82.7572 54.2201 82.8792ZM65.3532 82.2322C64.5439 82.2792 63.7554 82.2489 62.9879 82.1412C62.2204 82.0336 61.6016 81.8665 61.1317 81.6401L61.5151 79.0675C62.1412 79.361 62.8004 79.5701 63.4928 79.6948C64.1852 79.8195 64.8602 79.8628 65.5177 79.8246C66.3397 79.7768 66.9628 79.582 67.387 79.2401C67.8238 78.8975 68.0265 78.4543 67.9949 77.9106C67.9736 77.5439 67.7852 77.2503 67.4298 77.0299C67.0871 76.8087 66.4617 76.5279 65.5538 76.1873C64.5677 75.8132 63.8391 75.3925 63.3678 74.925C62.8959 74.4449 62.64 73.8635 62.6003 73.1806C62.5871 72.953 62.6022 72.6667 62.6456 72.3216C62.7539 71.5667 63.0572 70.8893 63.5552 70.2894C64.0525 69.6768 64.6903 69.1893 65.4686 68.8269C66.2468 68.4644 67.1165 68.2553 68.0775 68.1994C68.8616 68.1539 69.5481 68.1774 70.1371 68.2701C70.7388 68.362 71.3066 68.5256 71.8405 68.7611L71.4527 71.2578C70.4214 70.7594 69.3493 70.5426 68.2365 70.6073C67.5284 70.6484 66.954 70.8087 66.5135 71.0881C66.0722 71.3548 65.8143 71.7187 65.7396 72.1798C65.7216 72.3077 65.7145 72.4033 65.7182 72.4665C65.7336 72.7321 65.829 72.9549 66.0044 73.135C66.1917 73.3018 66.4352 73.4526 66.7349 73.5874C67.0346 73.7223 67.5149 73.91 68.176 74.1508C69.2141 74.5472 69.9613 74.9605 70.4177 75.3908C70.8868 75.8203 71.1415 76.3828 71.1819 77.0783C71.1988 77.3691 71.18 77.7001 71.1255 78.0712C70.9424 79.2872 70.3645 80.2597 69.3918 80.9887C68.4191 81.7177 67.0729 82.1322 65.3532 82.2322ZM75.9914 70.442L72.1219 70.6669L72.4941 68.2282L83.1161 67.6109L82.744 70.0496L78.8745 70.2745L77.21 81.2576L74.3269 81.4251L75.9914 70.442ZM83.815 67.5703L86.6981 67.4027L85.0146 78.3869L91.0844 78.0341L90.7312 80.4717L81.7783 80.992L83.815 67.5703ZM93.156 67.0274L102.355 66.4927L101.983 68.9314L95.667 69.2985L95.2007 72.4088L99.8478 72.1387L99.4892 74.4815L94.842 74.7515L94.3556 77.844L100.672 77.4769L100.319 79.9145L91.1193 80.4491L93.156 67.0274ZM109.245 66.0923L112.128 65.9247L110.444 76.9089L116.514 76.5561L116.161 78.9937L107.208 79.5141L109.245 66.0923ZM123.517 65.2628L126.344 65.0985L129.599 78.2127L126.754 78.3781L126.055 75.5258L120.801 75.8312L119.224 78.8157L116.17 78.9932L123.517 65.2628ZM125.656 73.2461L124.547 68.248L121.901 73.4644L125.656 73.2461ZM132.669 64.7309L139.175 64.3527C140.161 64.2954 140.973 64.5083 141.61 64.9915C142.246 65.4621 142.589 66.1273 142.639 66.9872C142.656 67.2654 142.646 67.5324 142.61 67.7882C142.518 68.3899 142.297 68.9483 141.946 69.4636C141.594 69.9661 141.161 70.3656 140.645 70.662C141.616 70.9863 142.131 71.6669 142.191 72.7038C142.205 72.944 142.191 73.2367 142.147 73.5818C141.966 74.8358 141.466 75.8291 140.646 76.562C139.837 77.2814 138.776 77.6794 137.46 77.7558L130.632 78.1527L132.669 64.7309ZM137.8 69.8378C138.305 69.8084 138.722 69.6573 139.048 69.3845C139.388 69.1111 139.598 68.6928 139.68 68.1298C139.705 67.9126 139.713 67.7282 139.705 67.5764C139.682 67.1844 139.54 66.9199 139.278 66.7829C139.029 66.6451 138.664 66.5901 138.183 66.6181L135.205 66.7912L134.727 70.0164L137.8 69.8378ZM137.086 75.5698C137.706 75.5338 138.192 75.385 138.545 75.1235C138.909 74.8485 139.143 74.3972 139.246 73.7695C139.272 73.5523 139.28 73.3678 139.271 73.2161C139.246 72.7861 139.089 72.4844 138.8 72.3109C138.51 72.1247 138.087 72.0478 137.53 72.0802L134.382 72.2632L133.842 75.7583L137.086 75.5698Z" fill="white"/>
<defs>
<linearGradient id="paint0_linear_13_1168" x1="46.2009" y1="8.85773" x2="55.4164" y2="127.411" gradientUnits="userSpaceOnUse">
<stop stop-color="#614E9D"/>
<stop offset="1" stop-color="#DE6EA9"/>
</linearGradient>
<linearGradient id="paint1_linear_13_1168" x1="88.0801" y1="57.6032" x2="97.2956" y2="176.157" gradientUnits="userSpaceOnUse">
<stop stop-color="#614E9D"/>
<stop offset="1" stop-color="#DE6EA9"/>
</linearGradient>
<linearGradient id="paint2_linear_13_1168" x1="18.9776" y1="79.2349" x2="165.426" y2="67.851" gradientUnits="userSpaceOnUse">
<stop stop-color="#E482B1"/>
<stop offset="1" stop-color="#584B9A"/>
</linearGradient>
</defs>
</svg>
